<svg width="1440" height="711" viewBox="0 0 1440 711" fill="none" xmlns="http://www.w3.org/2000/svg">
<path fill-rule="evenodd" clip-rule="evenodd" d="M-128 106.384L-75.3211 90.2943C-23.7172 76.2161 81.6406 46.0486 185.923 90.2943C291.281 134.54 395.564 253.199 500.922 223.031C605.205 194.875 710.562 17.8924 814.845 1.80304C920.203 -12.2751 1024.49 134.54 1129.84 164.707C1234.13 194.875 1339.48 106.384 1391.09 62.138L1443.77 17.8924L1443.77 723.811H1391.09C1339.48 723.811 1234.13 723.811 1129.84 723.811C1024.49 723.811 920.203 723.811 814.845 723.811C710.562 723.811 605.205 723.811 500.922 723.811C395.564 723.811 291.281 723.811 185.923 723.811C81.6406 723.811 -23.7172 723.811 -75.3211 723.811H-128L-128 106.384Z" fill="url(#paint0_linear_142_1490)"/>
<defs>
<linearGradient id="paint0_linear_142_1490" x1="-128" y1="0.854492" x2="1443.77" y2="0.854455" gradientUnits="userSpaceOnUse">
<stop offset="0.0202353" stop-color="#F5F8FF"/>
<stop offset="0.390301" stop-color="#FFF3F3" stop-opacity="0.72973"/>
<stop offset="0.719249" stop-color="#F5FFFE"/>
<stop offset="0.99273" stop-color="#E5FFF3"/>
</linearGradient>
</defs>
</svg>
