<svg width="1440" height="646" viewBox="0 0 1440 646" fill="none" xmlns="http://www.w3.org/2000/svg">
<path fill-rule="evenodd" clip-rule="evenodd" d="M1451 551.12L1402 565.586C1354 578.243 1256 605.367 1159 565.586C1061 525.805 964 419.121 866 446.244C769 471.559 671 630.682 574 645.147C476 657.805 379 525.805 281 498.682C184 471.559 86 551.12 38 590.901L-11 630.682V-4H38C86 -4 184 -4 281 -4C379 -4 476 -4 574 -4C671 -4 769 -4 866 -4C964 -4 1061 -4 1159 -4C1256 -4 1354 -4 1402 -4H1451V551.12Z" fill="url(#paint0_linear_117_165)"/>
<defs>
<linearGradient id="paint0_linear_117_165" x1="1451" y1="646" x2="-11" y2="646" gradientUnits="userSpaceOnUse">
<stop offset="0.0202353" stop-color="#F5F8FF"/>
<stop offset="0.390301" stop-color="#FFF3F3" stop-opacity="0.72973"/>
<stop offset="0.719249" stop-color="#F5FFFE"/>
<stop offset="0.99273" stop-color="#E5FFF3"/>
</linearGradient>
</defs>
</svg>
